{"accessors" : [{"bufferView" : 0, "byteOffset" : 0, "componentType" : 5123, "count" : 2850, "type" : "SCALAR", "max" : [2778], "min" : [0]}, {"bufferView" : 1, "byteOffset" : 0, "componentType" : 5126, "count" : 2779, "type" : "VEC3", "max" : [19.990999221801758, 16.67799949645996, 41.5], "min" : [-19.990999221801758, -16.67799949645996, -2.609999895095825], "name" : "POSITION"}, {"bufferView" : 1, "byteOffset" : 12, "componentType" : 5126, "count" : 2779, "type" : "VEC3", "max" : [1.0000044107437134, 1.0000044107437134, 0.9982684850692749], "min" : [-1.0000044107437134, -1.0000044107437134, -1.0000044107437134], "name" : "NORMAL"}], "asset" : {"generator" : "Aspose.3D 22.12", "version" : "2.0"}, "buffers" : [{"uri" : "data:application/octet-stream;base64,", "byteLength" : 74108}], "bufferViews" : [{"buffer" : 0, "byteOffset" : 0, "byteLength" : 5700, "target" : 34963}, {"buffer" : 0, "byteOffset" : 5704, "byteLength" : 68400, "byteStride" : 24, "target" : 34962}], "meshes" : [{"primitives" : [{"attributes" : {"POSITION" : 1, "NORMAL" : 2}, "indices" : 0, "mode" : 4}], "name" : ""}], "nodes" : [{"mesh" : 0, "name" : ""}], "scene" : 0, "scenes" : [{"nodes" : [0]}]}